With: Matthew McConaughey, Jennifer Garner and Michael Douglas

De succesvolle en knappe vrijgezel Connor (Matthew McConaughey) wijst de ene na de andere vrouw de deur. Connor houdt van vrouwen maar voor relaties voelt hij niet zo veel. Hij wil maar één ding: plezier maken. Zelfs de relatie met zijn jeugdliefde Jenny liep op de klippen. Dan wordt hij door drie geesten bezocht die hem langs zijn mislukte relaties loodsen. Dan beseft hij pas dat hij Jenny niet zomaar met een ander kan laten trouwen...

A bachelor is haunted by the ghosts of his past girlfriends at his younger brother's wedding. 

------------------ Dutch Friends ------------------
You can find my Friends at: http://www.Film-Test.nl 
------ They got my dutchs subs ---- and more ------

General:

Complete name                    : Ghosts of Girlfriends Past\Ghosts of Girlfriends Past.avi
Format                           : AVI
Format/Info                      : Audio Video Interleave
File size                        : 1.50 GiB
Duration                         : 1h 36mn
Overall bit rate                 : 2 228 Kbps

Video:

Format                           : MPEG-4 Visual
Format profile                   : Simple@L3
Format settings, BVOP            : No
Format settings, QPel            : No
Format settings, GMC             : No warppoints
Format settings, Matrix          : Default (H.263)
Codec ID                         : XVID
Codec ID/Hint                    : XviD
Duration                         : 1h 36mn
Bit rate                         : 1 769 Kbps
Width                            : 720 pixels
Height                           : 304 pixels
Display aspect ratio             : 2.35:1
Frame rate                       : 25.000 fps
Color space                      : YUV
Chroma subsampling               : 4:2:0
Bit depth                        : 8 bits
Scan type                        : Progressive
Bits/(Pixel*Frame)               : 0.323
Stream size                      : 1.19 GiB (79%)
Writing library                  : XviD 1.1.2 (UTC 2006-11-01)

Audio:

Format                           : AC-3
Format/Info                      : Audio Coding 3
Mode extension                   : CM (complete main)
Codec ID                         : 2000
Duration                         : 1h 36mn
Bit rate mode                    : Constant
Bit rate                         : 448 Kbps
Channel(s)                       : 6 channels
Channel positions                : Front: L C R, Side: L R, LFE
Sampling rate                    : 48.0 KHz
Bit depth                        : 16 bits
Stream size                      : 309 MiB (20%)
Alignment                        : Aligned on interleaves
Interleave, duration             : 32 ms (0.80 video frame)
Interleave, preload duration     : 160 ms

